<?xml version="1.0" encoding="utf-8"?>
<!-- Generator: Adobe Illustrator 23.0.3, SVG Export Plug-In . SVG Version: 6.00 Build 0)  -->
<svg version="1.1" id="Layer_1" xmlns="http://www.w3.org/2000/svg" xmlns:xlink="http://www.w3.org/1999/xlink" x="0px" y="0px"
	 viewBox="0 0 333.4 333.4" style="enable-background:new 0 0 333.4 333.4;" xml:space="preserve">
<style type="text/css">
	.st0{fill:none;stroke:#486EB4;stroke-width:15;stroke-miterlimit:10;}
	.st1{fill:none;stroke:#B54185;stroke-width:15;stroke-miterlimit:10;}
	.st2{fill:none;stroke:#1AAFDE;stroke-width:15;stroke-miterlimit:10;}
	.st3{fill:none;stroke:#157CBA;stroke-width:15;stroke-miterlimit:10;}
	.st4{fill:none;stroke:#2DAF4B;stroke-width:15;stroke-miterlimit:10;}
	.st5{fill:none;stroke:#EF4D44;stroke-width:15;stroke-miterlimit:10;}
	.st6{fill:none;stroke:#EB4943;stroke-width:15;stroke-miterlimit:10;}
	.st7{fill:none;stroke:#20B6E9;stroke-width:15;stroke-miterlimit:10;}
	.st8{fill:none;stroke:#F4E028;stroke-width:15;stroke-miterlimit:10;}
	.st9{fill:none;stroke:#33445A;stroke-width:15;stroke-miterlimit:10;}
	.st10{fill:none;stroke:#2790CF;stroke-width:15;stroke-miterlimit:10;}
	.st11{fill:none;stroke:#39AAE0;stroke-width:15;stroke-miterlimit:10;}
	.st12{fill:#FFFFFF;}
	.st13{fill:#486EB4;}
	.st14{fill:#B54185;}
	.st15{fill:#2DAF4B;}
	.st16{fill:#EB4943;}
	.st17{fill:#157CBA;}
	.st18{fill:#1AAFDE;}
	.st19{fill:#EF4D44;}
	.st20{fill:#33445A;}
	.st21{fill:#20B6E9;}
	.st22{fill:#F4E028;}
	.st23{fill:#2790CF;}
	.st24{fill:#39AAE0;}
	.st25{fill:none;stroke:url(#SVGID_1_);stroke-width:15;stroke-miterlimit:10;}
	.st26{fill:none;stroke:url(#SVGID_2_);stroke-width:15;stroke-miterlimit:10;}
	.st27{fill:none;stroke:url(#SVGID_3_);stroke-width:15;stroke-miterlimit:10;}
	.st28{fill:none;stroke:url(#SVGID_4_);stroke-width:15;stroke-miterlimit:10;}
	.st29{fill:none;stroke:url(#SVGID_5_);stroke-width:15;stroke-miterlimit:10;}
	.st30{fill:none;stroke:url(#SVGID_6_);stroke-width:15;stroke-miterlimit:10;}
	.st31{fill:none;stroke:url(#SVGID_7_);stroke-width:15;stroke-miterlimit:10;}
	.st32{fill:none;stroke:url(#SVGID_8_);stroke-width:15;stroke-miterlimit:10;}
	.st33{fill:none;stroke:url(#SVGID_9_);stroke-width:15;stroke-miterlimit:10;}
	.st34{fill:none;stroke:url(#SVGID_10_);stroke-width:15;stroke-miterlimit:10;}
	.st35{fill:none;stroke:url(#SVGID_11_);stroke-width:15;stroke-miterlimit:10;}
	.st36{fill:none;stroke:url(#SVGID_12_);stroke-width:15;stroke-miterlimit:10;}
	.st37{fill:url(#SVGID_13_);}
	.st38{fill:url(#SVGID_14_);}
	.st39{fill:url(#XMLID_14_);}
	.st40{fill:url(#SVGID_15_);}
	.st41{fill:url(#SVGID_16_);}
	.st42{fill:url(#SVGID_17_);}
	.st43{fill:url(#SVGID_18_);}
	.st44{fill:url(#SVGID_19_);}
	.st45{fill:url(#SVGID_20_);}
	.st46{fill:url(#SVGID_21_);}
	.st47{fill:url(#SVGID_22_);}
	.st48{fill:url(#SVGID_23_);}
	.st49{fill:url(#SVGID_24_);}
	.st50{fill:url(#SVGID_25_);}
	.st51{fill:url(#SVGID_26_);}
	.st52{fill:url(#SVGID_27_);}
	.st53{fill:url(#SVGID_28_);}
	.st54{fill:url(#SVGID_29_);}
	.st55{fill:url(#SVGID_30_);}
	.st56{fill:url(#SVGID_31_);}
	.st57{fill:url(#SVGID_32_);}
	.st58{fill:url(#SVGID_33_);}
	.st59{fill:url(#SVGID_34_);}
	.st60{fill:url(#SVGID_35_);}
</style>
<path class="st14" d="M15.1,88.2c0,0,2.7-70.7,80.4-68.4s208.6-0.8,221.7,76.6c13.1,77.4-84.3,222.8-162.9,222.6
	C86.5,318.8,10.9,193.2,15.1,88.2z"/>
<g>
	<g>
		<path class="st12" d="M166.7,98.5c-27.7,0-50.2,22.5-50.2,50.2c0,27.7,22.5,50.2,50.2,50.2c27.7,0,50.2-22.5,50.2-50.2
			C216.9,120.9,194.4,98.5,166.7,98.5L166.7,98.5z M166.7,181.2c-18,0-32.6-14.6-32.6-32.6s14.6-32.6,32.6-32.6s32.6,14.6,32.6,32.6
			C199.3,166.6,184.7,181.2,166.7,181.2z"/>
		<path class="st12" d="M207,51.5c-18-0.8-62.5-0.8-80.6,0c-15.8,0.7-29.8,4.6-41,15.8C66.6,86.1,69,111.5,69,148.6
			c0,38-2.1,62.8,16.4,81.3c18.9,18.9,44.6,16.4,81.3,16.4c37.7,0,50.7,0,64-5.1c18.1-7,31.8-23.2,33.1-52.3c0.8-18,0.8-62.5,0-80.6
			C262.2,74,243.8,53.2,207,51.5L207,51.5z M235.5,217.5c-12.3,12.3-29.4,11.2-69,11.2c-40.7,0-57.1,0.6-69-11.3
			c-13.7-13.7-11.2-35.6-11.2-68.9c0-45-4.6-77.4,40.6-79.7c10.4-0.4,13.4-0.5,39.6-0.5l0.4,0.2c43.4,0,77.5-4.5,79.5,40.6
			c0.5,10.3,0.6,13.4,0.6,39.5C246.8,188.9,247.6,205.3,235.5,217.5L235.5,217.5z"/>
		<circle class="st12" cx="218.9" cy="96.5" r="11.7"/>
	</g>
</g>
</svg>
