<?xml version="1.0" encoding="utf-8"?>
<!-- Generator: Adobe Illustrator 23.0.3, SVG Export Plug-In . SVG Version: 6.00 Build 0)  -->
<svg version="1.1" id="Layer_1" xmlns="http://www.w3.org/2000/svg" xmlns:xlink="http://www.w3.org/1999/xlink" x="0px" y="0px"
	 viewBox="0 0 333.4 333.4" style="enable-background:new 0 0 333.4 333.4;" xml:space="preserve">
<style type="text/css">
	.st0{fill:none;stroke:#486EB4;stroke-width:15;stroke-miterlimit:10;}
	.st1{fill:none;stroke:#B54185;stroke-width:15;stroke-miterlimit:10;}
	.st2{fill:none;stroke:#1AAFDE;stroke-width:15;stroke-miterlimit:10;}
	.st3{fill:none;stroke:#157CBA;stroke-width:15;stroke-miterlimit:10;}
	.st4{fill:none;stroke:#2DAF4B;stroke-width:15;stroke-miterlimit:10;}
	.st5{fill:none;stroke:#EF4D44;stroke-width:15;stroke-miterlimit:10;}
	.st6{fill:none;stroke:#EB4943;stroke-width:15;stroke-miterlimit:10;}
	.st7{fill:none;stroke:#20B6E9;stroke-width:15;stroke-miterlimit:10;}
	.st8{fill:none;stroke:#F4E028;stroke-width:15;stroke-miterlimit:10;}
	.st9{fill:none;stroke:#33445A;stroke-width:15;stroke-miterlimit:10;}
	.st10{fill:none;stroke:#2790CF;stroke-width:15;stroke-miterlimit:10;}
	.st11{fill:none;stroke:#39AAE0;stroke-width:15;stroke-miterlimit:10;}
	.st12{fill:#FFFFFF;}
	.st13{fill:#486EB4;}
	.st14{fill:#B54185;}
	.st15{fill:#2DAF4B;}
	.st16{fill:#EB4943;}
	.st17{fill:#157CBA;}
	.st18{fill:#1AAFDE;}
	.st19{fill:#EF4D44;}
	.st20{fill:#33445A;}
	.st21{fill:#20B6E9;}
	.st22{fill:#F4E028;}
	.st23{fill:#2790CF;}
	.st24{fill:#39AAE0;}
	.st25{fill:none;stroke:url(#SVGID_1_);stroke-width:15;stroke-miterlimit:10;}
	.st26{fill:none;stroke:url(#SVGID_2_);stroke-width:15;stroke-miterlimit:10;}
	.st27{fill:none;stroke:url(#SVGID_3_);stroke-width:15;stroke-miterlimit:10;}
	.st28{fill:none;stroke:url(#SVGID_4_);stroke-width:15;stroke-miterlimit:10;}
	.st29{fill:none;stroke:url(#SVGID_5_);stroke-width:15;stroke-miterlimit:10;}
	.st30{fill:none;stroke:url(#SVGID_6_);stroke-width:15;stroke-miterlimit:10;}
	.st31{fill:none;stroke:url(#SVGID_7_);stroke-width:15;stroke-miterlimit:10;}
	.st32{fill:none;stroke:url(#SVGID_8_);stroke-width:15;stroke-miterlimit:10;}
	.st33{fill:none;stroke:url(#SVGID_9_);stroke-width:15;stroke-miterlimit:10;}
	.st34{fill:none;stroke:url(#SVGID_10_);stroke-width:15;stroke-miterlimit:10;}
	.st35{fill:none;stroke:url(#SVGID_11_);stroke-width:15;stroke-miterlimit:10;}
	.st36{fill:none;stroke:url(#SVGID_12_);stroke-width:15;stroke-miterlimit:10;}
	.st37{fill:url(#SVGID_13_);}
	.st38{fill:url(#SVGID_14_);}
	.st39{fill:url(#XMLID_14_);}
	.st40{fill:url(#SVGID_15_);}
	.st41{fill:url(#SVGID_16_);}
	.st42{fill:url(#SVGID_17_);}
	.st43{fill:url(#SVGID_18_);}
	.st44{fill:url(#SVGID_19_);}
	.st45{fill:url(#SVGID_20_);}
	.st46{fill:url(#SVGID_21_);}
	.st47{fill:url(#SVGID_22_);}
	.st48{fill:url(#SVGID_23_);}
	.st49{fill:url(#SVGID_24_);}
	.st50{fill:url(#SVGID_25_);}
	.st51{fill:url(#SVGID_26_);}
	.st52{fill:url(#SVGID_27_);}
	.st53{fill:url(#SVGID_28_);}
	.st54{fill:url(#SVGID_29_);}
	.st55{fill:url(#SVGID_30_);}
	.st56{fill:url(#SVGID_31_);}
	.st57{fill:url(#SVGID_32_);}
	.st58{fill:url(#SVGID_33_);}
	.st59{fill:url(#SVGID_34_);}
	.st60{fill:url(#SVGID_35_);}
</style>
<path class="st17" d="M15.1,88.2c0,0,2.7-70.7,80.4-68.4s208.6-0.8,221.7,76.6c13.1,77.4-84.3,222.8-162.9,222.6
	C86.5,318.8,10.9,193.2,15.1,88.2z"/>
<g>
	<g>
		<path class="st12" d="M253.8,223.8L253.8,223.8L253.8,223.8l0-63.9c0-31.3-6.7-55.4-43.3-55.4c-17.6,0-29.4,9.6-34.2,18.8h-0.5
			v-15.9h-34.7v116.4h36.1v-57.6c0-15.2,2.9-29.8,21.7-29.8c18.5,0,18.8,17.3,18.8,30.8v56.7L253.8,223.8z"/>
		<path class="st12" d="M82.4,107.5h36.1v116.4H82.4V107.5z"/>
		<path class="st12" d="M100.5,49.5c-11.6,0-20.9,9.4-20.9,20.9s9.4,21.1,20.9,21.1s20.9-9.6,20.9-21.1
			C121.4,58.9,112,49.5,100.5,49.5z"/>
	</g>
</g>
</svg>
